<!DOCTYPE svg PUBLIC "-//W3C//DTD SVG 20010904//EN" "http://www.w3.org/TR/2001/REC-SVG-20010904/DTD/svg10.dtd">
<svg version="1.0" xmlns="http://www.w3.org/2000/svg" width="256px" height="256px" viewBox="0 0 2560 2560" preserveAspectRatio="xMidYMid meet">
<g id="layer101" fill="#272828" stroke="none">
 <path d="M505 2530 c-223 -45 -408 -222 -465 -446 -19 -73 -20 -113 -20 -804 0 -691 1 -731 20 -804 29 -113 73 -190 160 -276 86 -87 163 -131 276 -160 73 -19 113 -20 804 -20 691 0 731 1 804 20 197 50 346 186 425 388 l26 67 0 785 0 785 -26 67 c-40 102 -87 173 -159 241 -79 75 -162 121 -266 147 -74 19 -111 20 -808 19 -402 -1 -749 -5 -771 -9z"/>
 </g>
<g id="layer102" fill="#82b965" stroke="none">
 <path d="M1090 2009 c-85 -34 -228 -190 -297 -326 l-37 -71 -71 -7 c-239 -24 -421 -130 -495 -287 -151 -322 -1 -650 305 -666 44 -2 215 4 380 13 330 18 812 21 1085 5 96 -5 212 -10 257 -10 77 0 84 2 99 24 102 157 -50 818 -260 1135 -54 81 -131 155 -189 181 -39 18 -68 20 -397 19 -210 0 -365 -4 -380 -10z m-400 -605 c0 -4 -18 -61 -39 -128 -40 -127 -62 -223 -82 -365 l-12 -83 -50 6 c-62 9 -117 36 -150 76 -104 124 -21 376 148 451 73 32 185 58 185 43z"/>
 </g>
<g id="layer103" fill="#fdfefd" stroke="none">
 <path d="M1300 1721 c-210 -103 -250 -131 -250 -179 0 -39 186 -421 221 -454 16 -16 41 -28 55 -28 19 0 95 31 112 45 8 7 -50 105 -62 105 -26 0 -49 38 -43 69 8 36 -63 201 -86 201 -41 0 -62 74 -29 103 51 47 129 -15 93 -72 -15 -23 66 -176 98 -188 44 -16 141 40 141 81 0 30 -71 176 -86 176 -40 0 -59 73 -26 103 41 37 110 1 98 -51 -10 -41 -10 -42 29 -130 54 -122 45 -152 -61 -205 -63 -32 -72 -57 -44 -121 10 -25 24 -46 30 -46 6 0 73 31 150 70 147 74 179 103 166 155 -10 41 -202 430 -218 443 -9 7 -31 15 -50 18 -27 4 -68 -12 -238 -95z"/>
 <path d="M1473 1088 c-23 -11 -23 -14 -23 -210 l0 -198 25 0 25 0 0 210 c0 116 -1 210 -2 209 -2 0 -13 -5 -25 -11z"/>
 </g>

</svg>