<?xml version="1.0" encoding="UTF-8" standalone="no"?>
<svg
   xmlns:dc="http://purl.org/dc/elements/1.1/"
   xmlns:cc="http://creativecommons.org/ns#"
   xmlns:rdf="http://www.w3.org/1999/02/22-rdf-syntax-ns#"
   xmlns:svg="http://www.w3.org/2000/svg"
   xmlns="http://www.w3.org/2000/svg"
   xmlns:sodipodi="http://sodipodi.sourceforge.net/DTD/sodipodi-0.dtd"
   xmlns:inkscape="http://www.inkscape.org/namespaces/inkscape"
   inkscape:version="1.0 (1.0+r73+1)"
   inkscape:export-ydpi="96"
   inkscape:export-xdpi="96"
   inkscape:export-filename="/home/sasha/Документи/CodeTyphonProject/GiteaPanel/resource/giteapanel_1.png"
   sodipodi:docname="giteapanel.svg"
   id="svg13"
   preserveAspectRatio="xMidYMid meet"
   viewBox="0 0 2560 2560"
   height="256px"
   width="256px"
   version="1.0">
  <metadata
     id="metadata19">
    <rdf:RDF>
      <cc:Work
         rdf:about="">
        <dc:format>image/svg+xml</dc:format>
        <dc:type
           rdf:resource="http://purl.org/dc/dcmitype/StillImage" />
        <dc:title />
      </cc:Work>
    </rdf:RDF>
  </metadata>
  <defs
     id="defs17" />
  <sodipodi:namedview
     inkscape:current-layer="svg13"
     inkscape:window-maximized="0"
     inkscape:window-y="30"
     inkscape:window-x="0"
     inkscape:cy="20.579471"
     inkscape:cx="92.347269"
     inkscape:zoom="2.3421236"
     inkscape:guide-bbox="true"
     showguides="true"
     showgrid="false"
     id="namedview15"
     inkscape:window-height="1024"
     inkscape:window-width="1225"
     inkscape:pageshadow="2"
     inkscape:pageopacity="0"
     guidetolerance="10"
     gridtolerance="10"
     objecttolerance="10"
     borderopacity="1"
     bordercolor="#666666"
     pagecolor="#ffffff"
     inkscape:document-rotation="0">
    <sodipodi:guide
       id="guide848"
       orientation="1,0"
       position="1246.9489,2515.8301" />
    <sodipodi:guide
       id="guide850"
       orientation="0,-1"
       position="-61.158255,1309.6535" />
  </sodipodi:namedview>
  <rect
     ry="500"
     rx="500"
     y="16.041504"
     x="17.477905"
     height="2527.917"
     width="2525.0442"
     id="rect846"
     style="opacity:1;fill:#82b965;fill-opacity:1;stroke:none;stroke-width:20;stroke-miterlimit:4;stroke-dasharray:none;stroke-opacity:1" />
  <g
     id="g994"
     transform="translate(-6.8276796,-4.6249422e-5)">
    <g
       id="layer103"
       fill="#fdfefd"
       stroke="none"
       style="fill:#ffffff"
       transform="matrix(2.3423771,0,0,2.1565976,-2067.5296,-1815.0413)">
      <path
         d="m 1473,1092.415 c -23,-6.5884 -23,-8.3851 -23,-125.77573 V 848.0508 h 25 25 v 125.77565 c 0,69.47615 -1,125.77565 -2,125.17675 -2,0 -13,-2.9947 -25,-6.5882 z"
         id="path10"
         style="fill:#ffffff;stroke-width:0.773907" />
    </g>
    <path
       d="m 1177.9266,528.38382 c -98.5032,-50.73237 -218.64911,-12.285 -269.38165,86.21804 L 482.72347,1441.3884 c -50.73235,98.5032 -12.28501,218.6491 86.21803,269.3817 l 826.7868,425.8211 c 98.5023,50.7341 218.6491,12.2851 269.3817,-86.218 l 425.8211,-826.7868 c 50.7341,-98.5022 12.2851,-218.6491 -86.218,-269.38163 l -567.6798,-292.3899 c -0.075,0.0358 -0.1519,0.068 -0.228,0.10226 -0.064,0.0798 -0.095,0.18535 -0.1875,0.23306 -0.047,0.0254 0.01,-0.0974 0.01,-0.14901 -0.093,0.15894 -0.1421,0.34164 -0.268,0.47712 -0.051,0.0557 -0.143,0.0811 -0.2192,0.0849 -0.2006,0.12968 -0.3527,0.31601 -0.5298,0.47423 l 0.053,0.0275 c -15.8128,17.52652 -35.6388,47.81181 -52.069,81.95617 -71.9505,137.89313 -54.853,194.40463 83.8014,273.6074 233.4025,131.4003 249.863,198.9782 111.2908,461.7541 -100.0655,189.5366 -100.1921,191.7483 -82.9253,283.8072 20.3504,116.667 -140.9,187.1561 -229.0004,99.8196 -70.8808,-70.7814 -18.147,-229.7957 72.5696,-224.4676 34.0185,1.9976 214.3115,-311.6278 218.2707,-378.014 5.4124,-90.7269 -207.176,-227.5554 -309.0767,-198.0107 -74.1573,22.2921 -278.03954,350.0635 -247.057,402.957 74.1206,130.928 -110.98189,257.7477 -220.44118,146.9502 -71.01302,-68.5682 -13.6149,-229.5257 79.36968,-224.0647 52.1621,3.0633 234.9649,-352.6107 221.5737,-433.3393 -9.5153,-69.39738 47.6466,-150.41757 106.6123,-146.9545 22.2648,1.30766 122.9354,-138.30228 149.4212,-198.24481 z"
       style="fill:#ffffff;stroke-width:20"
       id="rect872" />
  </g>
</svg>
